<svg fill="none" height="106" viewBox="0 0 134 106" width="134" xmlns="http://www.w3.org/2000/svg">
<g fill="#fff">


<circle cx="1.66667" cy="74.667" r="1.66667" transform="matrix(0 -1 1 0 -73.00033 76.33367)"/><circle cx="1.66667" cy="31.0002" r="1.66667" transform="matrix(0 -1 1 0 -29.33353 32.66687)"/><circle cx="16.3333" cy="74.667" r="1.66667" transform="matrix(0 -1 1 0 -58.3337 91.0003)"/><circle cx="16.3333" cy="31.0002" r="1.66667" transform="matrix(0 -1 1 0 -14.6669 47.3335)"/><circle cx="31" cy="74.667" r="1.66667" transform="matrix(0 -1 1 0 -43.667 105.667)"/><circle cx="31" cy="31.0002" r="1.66667" transform="matrix(0 -1 1 0 -.0002 62.0002)"/><circle cx="45.6667" cy="74.667" r="1.66667" transform="matrix(0 -1 1 0 -29.0003 120.3337)"/><circle cx="45.6667" cy="31.0002" r="1.66667" transform="matrix(0 -1 1 0 14.6665 76.6669)"/><circle cx="60.3333" cy="74.6667" r="1.66667" transform="matrix(0 -1 1 0 -14.3334 135)"/><circle cx="60.3333" cy="31" r="1.66667" transform="matrix(0 -1 1 0 29.3333 91.3333)"/>
<circle cx="74.6667" cy="74.6667" r="1.66667" transform="matrix(0 -1 1 0 0 149.3334)"/><circle cx="74.6667" cy="31" r="1.66667" transform="matrix(0 -1 1 0 43.6667 105.6667)"/>
<circle cx="1.66667" cy="60.0002" r="1.66667" transform="matrix(0 -1 1 0 -58.33353 61.66687)"/><circle cx="1.66667" cy="16.3335" r="1.66667" transform="matrix(0 -1 1 0 -14.66683 18.00017)"/><circle cx="16.3333" cy="60.0002" r="1.66667" transform="matrix(0 -1 1 0 -43.6669 76.3335)"/><circle cx="16.3333" cy="16.3335" r="1.66667" transform="matrix(0 -1 1 0 -.0002 32.6668)"/><circle cx="31" cy="60.0002" r="1.66667" transform="matrix(0 -1 1 0 -29.0002 91.0002)"/><circle cx="31" cy="16.3335" r="1.66667" transform="matrix(0 -1 1 0 14.6665 47.3335)"/><circle cx="45.6667" cy="60.0002" r="1.66667" transform="matrix(0 -1 1 0 -14.3335 105.6669)"/><circle cx="45.6667" cy="16.3335" r="1.66667" transform="matrix(0 -1 1 0 29.3332 62.0002)"/><circle cx="60.3333" cy="60.0002" r="1.66667" transform="matrix(0 -1 1 0 .3331 120.3335)"/><circle cx="60.3333" cy="16.3335" r="1.66667" transform="matrix(0 -1 1 0 43.9998 76.6668)"/>
<circle cx="74.6667" cy="60.0002" r="1.66667" transform="matrix(0 -1 1 0 14.6665 134.6669)"/><circle cx="74.6667" cy="16.3335" r="1.66667" transform="matrix(0 -1 1 0 58.3332 91.0002)"/>
<circle cx="1.66667" cy="45.3335" r="1.66667" transform="matrix(0 -1 1 0 -43.66683 47.00017)"/><circle cx="1.66667" cy="1.66671" r="1.66667" transform="matrix(0 -1 1 0 -.00004 3.33338)"/><circle cx="16.3333" cy="45.3335" r="1.66667" transform="matrix(0 -1 1 0 -29.0002 61.6668)"/><circle cx="16.3333" cy="1.66671" r="1.66667" transform="matrix(0 -1 1 0 14.66659 18.00001)"/><circle cx="31" cy="45.3335" r="1.66667" transform="matrix(0 -1 1 0 -14.3335 76.3335)"/><circle cx="31" cy="1.66671" r="1.66667" transform="matrix(0 -1 1 0 29.33329 32.66671)"/><circle cx="45.6667" cy="45.3335" r="1.66667" transform="matrix(0 -1 1 0 .3332 91.0002)"/><circle cx="45.6667" cy="1.66671" r="1.66667" transform="matrix(0 -1 1 0 43.99999 47.33341)"/><circle cx="60.3333" cy="45.3337" r="1.66667" transform="matrix(0 -1 1 0 14.9996 105.667)"/><circle cx="60.3333" cy="1.66695" r="1.66667" transform="matrix(0 -1 1 0 58.66635 62.00025)"/>
<circle cx="74.6667" cy="45.3337" r="1.66667" transform="matrix(0 -1 1 0 29.333 120.0004)"/>
<circle cx="74.6667" cy="1.66695" r="1.66667" transform="matrix(0 -1 1 0 72.99975 76.33365)"/>
</g>
</svg>